# xmcd CD database file
#
# Track frame offsets:
#	150
#	23203
#	46253
#
# Disc length: 750 seconds
#
# Revision: 2
# Processed by: cddbd v1.5.2PL0 Copyright (c) Steve Scherf et al.
# Submitted via: CDex 1.70beta2
#
DISCID=1b02ec03
DTITLE=モリナオヤ - 夕空の紙飛行機
DYEAR=2000
DGENRE=JPop
TTITLE0=夕空の紙飛行機
TTITLE1=雨上がりの気持ち
TTITLE2=ラブソング
EXTD=YEAR: 2000
EXTT0=
EXTT1=
EXTT2=
PLAYORDER=
